<mxfile host="app.diagrams.net" modified="2023-04-07T19:56:43.530Z" agent="Mozilla/5.0 (Macintosh; Intel Mac OS X 10_15_7) AppleWebKit/605.1.15 (KHTML, like Gecko) Version/16.2 Safari/605.1.15" etag="vHO3rD1F2sth1EnGQU2K" version="21.1.5" type="github">
  <diagram name="Page-1" id="_dlQbxQwr0FtsPUABI_s">
    <mxGraphModel dx="4420" dy="1849" grid="1" gridSize="10" guides="1" tooltips="1" connect="1" arrows="1" fold="1" page="1" pageScale="1" pageWidth="850" pageHeight="1100" math="0" shadow="0">
      <root>
        <mxCell id="0" />
        <mxCell id="1" parent="0" />
        <mxCell id="BOf6KH2qvp3F2B6-meaJ-16" style="edgeStyle=orthogonalEdgeStyle;rounded=0;orthogonalLoop=1;jettySize=auto;html=1;exitX=0.5;exitY=1;exitDx=0;exitDy=0;entryX=0.85;entryY=1.028;entryDx=0;entryDy=0;entryPerimeter=0;" parent="1" source="t5PaIuf_Ucvlq-BYLgik-24" edge="1" target="t5PaIuf_Ucvlq-BYLgik-53">
          <mxGeometry relative="1" as="geometry">
            <mxPoint x="-260" y="1010" as="targetPoint" />
            <mxPoint x="590" y="540" as="sourcePoint" />
            <Array as="points">
              <mxPoint x="-190" y="1030" />
              <mxPoint x="665" y="1030" />
            </Array>
          </mxGeometry>
        </mxCell>
        <mxCell id="BOf6KH2qvp3F2B6-meaJ-19" style="edgeStyle=orthogonalEdgeStyle;rounded=0;orthogonalLoop=1;jettySize=auto;html=1;exitX=0.5;exitY=0;exitDx=0;exitDy=0;entryX=0.5;entryY=1;entryDx=0;entryDy=0;" parent="1" source="t5PaIuf_Ucvlq-BYLgik-24" target="t5PaIuf_Ucvlq-BYLgik-28" edge="1">
          <mxGeometry relative="1" as="geometry">
            <Array as="points">
              <mxPoint x="-190" y="580" />
              <mxPoint x="-190" y="580" />
            </Array>
          </mxGeometry>
        </mxCell>
        <mxCell id="t5PaIuf_Ucvlq-BYLgik-24" value="&lt;font style=&quot;font-size: 24px;&quot;&gt;Data Base&lt;/font&gt;" style="shape=datastore;whiteSpace=wrap;html=1;fontSize=22;fontStyle=1" parent="1" vertex="1">
          <mxGeometry x="-340" y="790" width="300" height="150" as="geometry" />
        </mxCell>
        <mxCell id="t5PaIuf_Ucvlq-BYLgik-44" value="" style="sketch=0;pointerEvents=1;shadow=0;dashed=0;html=1;strokeColor=none;fillColor=#505050;labelPosition=center;verticalLabelPosition=bottom;verticalAlign=top;outlineConnect=0;align=center;shape=mxgraph.office.concepts.form;" parent="1" vertex="1">
          <mxGeometry x="260" y="766.5" width="300" height="197" as="geometry" />
        </mxCell>
        <mxCell id="t5PaIuf_Ucvlq-BYLgik-47" value="" style="endArrow=classic;html=1;rounded=0;entryX=1;entryY=0.5;entryDx=0;entryDy=0;" parent="1" source="t5PaIuf_Ucvlq-BYLgik-44" target="t5PaIuf_Ucvlq-BYLgik-24" edge="1">
          <mxGeometry width="50" height="50" relative="1" as="geometry">
            <mxPoint x="490" y="1110" as="sourcePoint" />
            <mxPoint x="580" y="1000" as="targetPoint" />
          </mxGeometry>
        </mxCell>
        <mxCell id="t5PaIuf_Ucvlq-BYLgik-48" value="&lt;b&gt;Request Form&lt;/b&gt;" style="text;html=1;align=center;verticalAlign=middle;resizable=0;points=[];autosize=1;strokeColor=none;fillColor=none;fontSize=20;" parent="1" vertex="1">
          <mxGeometry x="320" y="968.5" width="160" height="40" as="geometry" />
        </mxCell>
        <mxCell id="BOf6KH2qvp3F2B6-meaJ-9" value="" style="group" parent="1" vertex="1" connectable="0">
          <mxGeometry x="-1040" y="380" width="520" height="160" as="geometry" />
        </mxCell>
        <mxCell id="t5PaIuf_Ucvlq-BYLgik-10" value="" style="whiteSpace=wrap;html=1;fillColor=#fff2cc;strokeColor=#d6b656;movable=1;resizable=1;rotatable=1;deletable=1;editable=1;locked=0;connectable=1;" parent="BOf6KH2qvp3F2B6-meaJ-9" vertex="1">
          <mxGeometry width="520" height="160" as="geometry" />
        </mxCell>
        <mxCell id="t5PaIuf_Ucvlq-BYLgik-12" value="&lt;div style=&quot;text-align: justify;&quot;&gt;&lt;b style=&quot;text-align: center; border-color: var(--border-color);&quot;&gt;&lt;div style=&quot;text-align: justify; display: inline !important;&quot;&gt;&lt;b style=&quot;border-color: var(--border-color);&quot;&gt;Schedule&amp;nbsp;&lt;/b&gt;&lt;b style=&quot;border-color: var(--border-color);&quot;&gt;your&lt;/b&gt;&lt;/div&gt;&lt;/b&gt;&lt;br&gt;&lt;/div&gt;&lt;b style=&quot;border-color: var(--border-color);&quot;&gt;&lt;div style=&quot;text-align: justify;&quot;&gt;&lt;b style=&quot;border-color: var(--border-color);&quot;&gt;Availability&lt;/b&gt;&lt;/div&gt;&lt;/b&gt;" style="rounded=1;whiteSpace=wrap;html=1;fillColor=#e1d5e7;strokeColor=#9673a6;fontSize=20;" parent="BOf6KH2qvp3F2B6-meaJ-9" vertex="1">
          <mxGeometry x="20" y="40" width="220" height="90" as="geometry" />
        </mxCell>
        <mxCell id="t5PaIuf_Ucvlq-BYLgik-13" value="&lt;b&gt;View Blood Requests&lt;br&gt;&lt;/b&gt;" style="rounded=1;whiteSpace=wrap;html=1;fillColor=#e1d5e7;strokeColor=#9673a6;fontSize=20;" parent="BOf6KH2qvp3F2B6-meaJ-9" vertex="1">
          <mxGeometry x="270" y="40" width="230" height="90" as="geometry" />
        </mxCell>
        <mxCell id="BOf6KH2qvp3F2B6-meaJ-10" value="" style="group" parent="1" vertex="1" connectable="0">
          <mxGeometry x="-1010" y="728.5" width="320" height="280" as="geometry" />
        </mxCell>
        <mxCell id="t5PaIuf_Ucvlq-BYLgik-22" value="Select Dates&amp;nbsp;&lt;br&gt;&lt;br&gt;&lt;br&gt;&lt;br&gt;&lt;br&gt;&lt;br&gt;&lt;br&gt;&lt;br&gt;&lt;br&gt;&lt;br&gt;" style="rounded=0;whiteSpace=wrap;html=1;fontSize=20;fontStyle=1" parent="BOf6KH2qvp3F2B6-meaJ-10" vertex="1">
          <mxGeometry x="20" y="20.74074074074074" width="280" height="259.25925925925924" as="geometry" />
        </mxCell>
        <mxCell id="t5PaIuf_Ucvlq-BYLgik-79" value="" style="strokeWidth=1;shadow=0;dashed=0;align=center;html=1;shape=mxgraph.mockup.forms.rrect;rSize=5;strokeColor=#999999;fillColor=#ffffff;" parent="BOf6KH2qvp3F2B6-meaJ-10" vertex="1">
          <mxGeometry x="45" y="62.22222222222222" width="230" height="186.66666666666666" as="geometry" />
        </mxCell>
        <mxCell id="t5PaIuf_Ucvlq-BYLgik-80" value="October 2014" style="strokeWidth=1;shadow=0;dashed=0;align=center;html=1;shape=mxgraph.mockup.forms.anchor;fontColor=#999999;" parent="t5PaIuf_Ucvlq-BYLgik-79" vertex="1">
          <mxGeometry x="43.125" y="8.533333333333331" width="143.75" height="21.33333333333333" as="geometry" />
        </mxCell>
        <mxCell id="t5PaIuf_Ucvlq-BYLgik-81" value="&lt;" style="strokeWidth=1;shadow=0;dashed=0;align=center;html=1;shape=mxgraph.mockup.forms.rrect;rSize=4;strokeColor=#999999;fontColor=#008cff;fontSize=19;fontStyle=1;" parent="t5PaIuf_Ucvlq-BYLgik-79" vertex="1">
          <mxGeometry x="11.5" y="8.533333333333331" width="35.9375" height="21.33333333333333" as="geometry" />
        </mxCell>
        <mxCell id="t5PaIuf_Ucvlq-BYLgik-82" value="&gt;" style="strokeWidth=1;shadow=0;dashed=0;align=center;html=1;shape=mxgraph.mockup.forms.rrect;rSize=4;strokeColor=#999999;fontColor=#008cff;fontSize=19;fontStyle=1;" parent="t5PaIuf_Ucvlq-BYLgik-79" vertex="1">
          <mxGeometry x="182.5625" y="8.533333333333331" width="35.9375" height="21.33333333333333" as="geometry" />
        </mxCell>
        <mxCell id="t5PaIuf_Ucvlq-BYLgik-83" value="Mo" style="strokeWidth=1;shadow=0;dashed=0;align=center;html=1;shape=mxgraph.mockup.forms.anchor;fontColor=#999999;" parent="t5PaIuf_Ucvlq-BYLgik-79" vertex="1">
          <mxGeometry x="14.375" y="29.866666666666664" width="28.75" height="21.33333333333333" as="geometry" />
        </mxCell>
        <mxCell id="t5PaIuf_Ucvlq-BYLgik-84" value="Tu" style="strokeWidth=1;shadow=0;dashed=0;align=center;html=1;shape=mxgraph.mockup.forms.anchor;fontColor=#999999;" parent="t5PaIuf_Ucvlq-BYLgik-79" vertex="1">
          <mxGeometry x="43.125" y="29.866666666666664" width="28.75" height="21.33333333333333" as="geometry" />
        </mxCell>
        <mxCell id="t5PaIuf_Ucvlq-BYLgik-85" value="We" style="strokeWidth=1;shadow=0;dashed=0;align=center;html=1;shape=mxgraph.mockup.forms.anchor;fontColor=#999999;" parent="t5PaIuf_Ucvlq-BYLgik-79" vertex="1">
          <mxGeometry x="71.875" y="29.866666666666664" width="28.75" height="21.33333333333333" as="geometry" />
        </mxCell>
        <mxCell id="t5PaIuf_Ucvlq-BYLgik-86" value="Th" style="strokeWidth=1;shadow=0;dashed=0;align=center;html=1;shape=mxgraph.mockup.forms.anchor;fontColor=#999999;" parent="t5PaIuf_Ucvlq-BYLgik-79" vertex="1">
          <mxGeometry x="100.625" y="29.866666666666664" width="28.75" height="21.33333333333333" as="geometry" />
        </mxCell>
        <mxCell id="t5PaIuf_Ucvlq-BYLgik-87" value="Fr" style="strokeWidth=1;shadow=0;dashed=0;align=center;html=1;shape=mxgraph.mockup.forms.anchor;fontColor=#999999;" parent="t5PaIuf_Ucvlq-BYLgik-79" vertex="1">
          <mxGeometry x="129.375" y="29.866666666666664" width="28.75" height="21.33333333333333" as="geometry" />
        </mxCell>
        <mxCell id="t5PaIuf_Ucvlq-BYLgik-88" value="Sa" style="strokeWidth=1;shadow=0;dashed=0;align=center;html=1;shape=mxgraph.mockup.forms.anchor;fontColor=#999999;" parent="t5PaIuf_Ucvlq-BYLgik-79" vertex="1">
          <mxGeometry x="158.125" y="29.866666666666664" width="28.75" height="21.33333333333333" as="geometry" />
        </mxCell>
        <mxCell id="t5PaIuf_Ucvlq-BYLgik-89" value="Su" style="strokeWidth=1;shadow=0;dashed=0;align=center;html=1;shape=mxgraph.mockup.forms.anchor;fontColor=#999999;" parent="t5PaIuf_Ucvlq-BYLgik-79" vertex="1">
          <mxGeometry x="186.875" y="29.866666666666664" width="28.75" height="21.33333333333333" as="geometry" />
        </mxCell>
        <mxCell id="t5PaIuf_Ucvlq-BYLgik-90" value="1" style="strokeWidth=1;shadow=0;dashed=0;align=center;html=1;shape=mxgraph.mockup.forms.rrect;rSize=0;strokeColor=#999999;fontColor=#999999;" parent="t5PaIuf_Ucvlq-BYLgik-79" vertex="1">
          <mxGeometry x="14.375" y="51.19999999999999" width="28.75" height="21.33333333333333" as="geometry" />
        </mxCell>
        <mxCell id="t5PaIuf_Ucvlq-BYLgik-91" value="2" style="strokeWidth=1;shadow=0;dashed=0;align=center;html=1;shape=mxgraph.mockup.forms.rrect;rSize=0;strokeColor=#999999;fontColor=#999999;" parent="t5PaIuf_Ucvlq-BYLgik-79" vertex="1">
          <mxGeometry x="43.125" y="51.19999999999999" width="28.75" height="21.33333333333333" as="geometry" />
        </mxCell>
        <mxCell id="t5PaIuf_Ucvlq-BYLgik-92" value="3" style="strokeWidth=1;shadow=0;dashed=0;align=center;html=1;shape=mxgraph.mockup.forms.rrect;rSize=0;strokeColor=#999999;fontColor=#999999;" parent="t5PaIuf_Ucvlq-BYLgik-79" vertex="1">
          <mxGeometry x="71.875" y="51.19999999999999" width="28.75" height="21.33333333333333" as="geometry" />
        </mxCell>
        <mxCell id="t5PaIuf_Ucvlq-BYLgik-93" value="4" style="strokeWidth=1;shadow=0;dashed=0;align=center;html=1;shape=mxgraph.mockup.forms.rrect;rSize=0;strokeColor=#999999;fontColor=#999999;" parent="t5PaIuf_Ucvlq-BYLgik-79" vertex="1">
          <mxGeometry x="100.625" y="51.19999999999999" width="28.75" height="21.33333333333333" as="geometry" />
        </mxCell>
        <mxCell id="t5PaIuf_Ucvlq-BYLgik-94" value="5" style="strokeWidth=1;shadow=0;dashed=0;align=center;html=1;shape=mxgraph.mockup.forms.rrect;rSize=0;strokeColor=#999999;fontColor=#999999;" parent="t5PaIuf_Ucvlq-BYLgik-79" vertex="1">
          <mxGeometry x="129.375" y="51.19999999999999" width="28.75" height="21.33333333333333" as="geometry" />
        </mxCell>
        <mxCell id="t5PaIuf_Ucvlq-BYLgik-95" value="6" style="strokeWidth=1;shadow=0;dashed=0;align=center;html=1;shape=mxgraph.mockup.forms.rrect;rSize=0;strokeColor=#999999;fontColor=#999999;" parent="t5PaIuf_Ucvlq-BYLgik-79" vertex="1">
          <mxGeometry x="158.125" y="51.19999999999999" width="28.75" height="21.33333333333333" as="geometry" />
        </mxCell>
        <mxCell id="t5PaIuf_Ucvlq-BYLgik-96" value="7" style="strokeWidth=1;shadow=0;dashed=0;align=center;html=1;shape=mxgraph.mockup.forms.rrect;rSize=0;strokeColor=#999999;fontColor=#999999;" parent="t5PaIuf_Ucvlq-BYLgik-79" vertex="1">
          <mxGeometry x="186.875" y="51.19999999999999" width="28.75" height="21.33333333333333" as="geometry" />
        </mxCell>
        <mxCell id="t5PaIuf_Ucvlq-BYLgik-97" value="8" style="strokeWidth=1;shadow=0;dashed=0;align=center;html=1;shape=mxgraph.mockup.forms.rrect;rSize=0;strokeColor=#999999;fontColor=#999999;" parent="t5PaIuf_Ucvlq-BYLgik-79" vertex="1">
          <mxGeometry x="14.375" y="72.53333333333332" width="28.75" height="21.33333333333333" as="geometry" />
        </mxCell>
        <mxCell id="t5PaIuf_Ucvlq-BYLgik-98" value="9" style="strokeWidth=1;shadow=0;dashed=0;align=center;html=1;shape=mxgraph.mockup.forms.rrect;rSize=0;strokeColor=#999999;fontColor=#999999;" parent="t5PaIuf_Ucvlq-BYLgik-79" vertex="1">
          <mxGeometry x="43.125" y="72.53333333333332" width="28.75" height="21.33333333333333" as="geometry" />
        </mxCell>
        <mxCell id="t5PaIuf_Ucvlq-BYLgik-99" value="10" style="strokeWidth=1;shadow=0;dashed=0;align=center;html=1;shape=mxgraph.mockup.forms.rrect;rSize=0;strokeColor=#999999;fontColor=#999999;" parent="t5PaIuf_Ucvlq-BYLgik-79" vertex="1">
          <mxGeometry x="71.875" y="72.53333333333332" width="28.75" height="21.33333333333333" as="geometry" />
        </mxCell>
        <mxCell id="t5PaIuf_Ucvlq-BYLgik-100" value="11" style="strokeWidth=1;shadow=0;dashed=0;align=center;html=1;shape=mxgraph.mockup.forms.rrect;rSize=0;strokeColor=#999999;fontColor=#999999;" parent="t5PaIuf_Ucvlq-BYLgik-79" vertex="1">
          <mxGeometry x="100.625" y="72.53333333333332" width="28.75" height="21.33333333333333" as="geometry" />
        </mxCell>
        <mxCell id="t5PaIuf_Ucvlq-BYLgik-101" value="12" style="strokeWidth=1;shadow=0;dashed=0;align=center;html=1;shape=mxgraph.mockup.forms.rrect;rSize=0;strokeColor=#999999;fontColor=#999999;" parent="t5PaIuf_Ucvlq-BYLgik-79" vertex="1">
          <mxGeometry x="129.375" y="72.53333333333332" width="28.75" height="21.33333333333333" as="geometry" />
        </mxCell>
        <mxCell id="t5PaIuf_Ucvlq-BYLgik-102" value="13" style="strokeWidth=1;shadow=0;dashed=0;align=center;html=1;shape=mxgraph.mockup.forms.rrect;rSize=0;strokeColor=#999999;fontColor=#999999;" parent="t5PaIuf_Ucvlq-BYLgik-79" vertex="1">
          <mxGeometry x="158.125" y="72.53333333333332" width="28.75" height="21.33333333333333" as="geometry" />
        </mxCell>
        <mxCell id="t5PaIuf_Ucvlq-BYLgik-103" value="14" style="strokeWidth=1;shadow=0;dashed=0;align=center;html=1;shape=mxgraph.mockup.forms.rrect;rSize=0;strokeColor=#999999;fontColor=#999999;" parent="t5PaIuf_Ucvlq-BYLgik-79" vertex="1">
          <mxGeometry x="186.875" y="72.53333333333332" width="28.75" height="21.33333333333333" as="geometry" />
        </mxCell>
        <mxCell id="t5PaIuf_Ucvlq-BYLgik-104" value="15" style="strokeWidth=1;shadow=0;dashed=0;align=center;html=1;shape=mxgraph.mockup.forms.rrect;rSize=0;strokeColor=#999999;fontColor=#999999;" parent="t5PaIuf_Ucvlq-BYLgik-79" vertex="1">
          <mxGeometry x="14.375" y="93.86666666666665" width="28.75" height="21.33333333333333" as="geometry" />
        </mxCell>
        <mxCell id="t5PaIuf_Ucvlq-BYLgik-105" value="16" style="strokeWidth=1;shadow=0;dashed=0;align=center;html=1;shape=mxgraph.mockup.forms.rrect;rSize=0;strokeColor=#999999;fontColor=#999999;" parent="t5PaIuf_Ucvlq-BYLgik-79" vertex="1">
          <mxGeometry x="43.125" y="93.86666666666665" width="28.75" height="21.33333333333333" as="geometry" />
        </mxCell>
        <mxCell id="t5PaIuf_Ucvlq-BYLgik-106" value="17" style="strokeWidth=1;shadow=0;dashed=0;align=center;html=1;shape=mxgraph.mockup.forms.rrect;rSize=0;strokeColor=#999999;fontColor=#999999;" parent="t5PaIuf_Ucvlq-BYLgik-79" vertex="1">
          <mxGeometry x="71.875" y="93.86666666666665" width="28.75" height="21.33333333333333" as="geometry" />
        </mxCell>
        <mxCell id="t5PaIuf_Ucvlq-BYLgik-107" value="18" style="strokeWidth=1;shadow=0;dashed=0;align=center;html=1;shape=mxgraph.mockup.forms.rrect;rSize=0;strokeColor=#999999;fontColor=#999999;" parent="t5PaIuf_Ucvlq-BYLgik-79" vertex="1">
          <mxGeometry x="100.625" y="93.86666666666665" width="28.75" height="21.33333333333333" as="geometry" />
        </mxCell>
        <mxCell id="t5PaIuf_Ucvlq-BYLgik-108" value="19" style="strokeWidth=1;shadow=0;dashed=0;align=center;html=1;shape=mxgraph.mockup.forms.rrect;rSize=0;strokeColor=#999999;fontColor=#999999;" parent="t5PaIuf_Ucvlq-BYLgik-79" vertex="1">
          <mxGeometry x="129.375" y="93.86666666666665" width="28.75" height="21.33333333333333" as="geometry" />
        </mxCell>
        <mxCell id="t5PaIuf_Ucvlq-BYLgik-109" value="20" style="strokeWidth=1;shadow=0;dashed=0;align=center;html=1;shape=mxgraph.mockup.forms.rrect;rSize=0;strokeColor=#999999;fontColor=#999999;" parent="t5PaIuf_Ucvlq-BYLgik-79" vertex="1">
          <mxGeometry x="158.125" y="93.86666666666665" width="28.75" height="21.33333333333333" as="geometry" />
        </mxCell>
        <mxCell id="t5PaIuf_Ucvlq-BYLgik-110" value="21" style="strokeWidth=1;shadow=0;dashed=0;align=center;html=1;shape=mxgraph.mockup.forms.rrect;rSize=0;strokeColor=#999999;fontColor=#999999;" parent="t5PaIuf_Ucvlq-BYLgik-79" vertex="1">
          <mxGeometry x="186.875" y="93.86666666666665" width="28.75" height="21.33333333333333" as="geometry" />
        </mxCell>
        <mxCell id="t5PaIuf_Ucvlq-BYLgik-111" value="22" style="strokeWidth=1;shadow=0;dashed=0;align=center;html=1;shape=mxgraph.mockup.forms.rrect;rSize=0;strokeColor=#999999;fontColor=#999999;" parent="t5PaIuf_Ucvlq-BYLgik-79" vertex="1">
          <mxGeometry x="14.375" y="115.19999999999999" width="28.75" height="21.33333333333333" as="geometry" />
        </mxCell>
        <mxCell id="t5PaIuf_Ucvlq-BYLgik-112" value="23" style="strokeWidth=1;shadow=0;dashed=0;align=center;html=1;shape=mxgraph.mockup.forms.rrect;rSize=0;strokeColor=#999999;fontColor=#999999;" parent="t5PaIuf_Ucvlq-BYLgik-79" vertex="1">
          <mxGeometry x="43.125" y="115.19999999999999" width="28.75" height="21.33333333333333" as="geometry" />
        </mxCell>
        <mxCell id="t5PaIuf_Ucvlq-BYLgik-113" value="25" style="strokeWidth=1;shadow=0;dashed=0;align=center;html=1;shape=mxgraph.mockup.forms.rrect;rSize=0;strokeColor=#999999;fontColor=#999999;" parent="t5PaIuf_Ucvlq-BYLgik-79" vertex="1">
          <mxGeometry x="100.625" y="115.19999999999999" width="28.75" height="21.33333333333333" as="geometry" />
        </mxCell>
        <mxCell id="t5PaIuf_Ucvlq-BYLgik-114" value="26" style="strokeWidth=1;shadow=0;dashed=0;align=center;html=1;shape=mxgraph.mockup.forms.rrect;rSize=0;strokeColor=#999999;fontColor=#999999;" parent="t5PaIuf_Ucvlq-BYLgik-79" vertex="1">
          <mxGeometry x="129.375" y="115.19999999999999" width="28.75" height="21.33333333333333" as="geometry" />
        </mxCell>
        <mxCell id="t5PaIuf_Ucvlq-BYLgik-115" value="27" style="strokeWidth=1;shadow=0;dashed=0;align=center;html=1;shape=mxgraph.mockup.forms.rrect;rSize=0;strokeColor=#999999;fontColor=#999999;" parent="t5PaIuf_Ucvlq-BYLgik-79" vertex="1">
          <mxGeometry x="158.125" y="115.19999999999999" width="28.75" height="21.33333333333333" as="geometry" />
        </mxCell>
        <mxCell id="t5PaIuf_Ucvlq-BYLgik-116" value="28" style="strokeWidth=1;shadow=0;dashed=0;align=center;html=1;shape=mxgraph.mockup.forms.rrect;rSize=0;strokeColor=#999999;fontColor=#999999;" parent="t5PaIuf_Ucvlq-BYLgik-79" vertex="1">
          <mxGeometry x="186.875" y="115.19999999999999" width="28.75" height="21.33333333333333" as="geometry" />
        </mxCell>
        <mxCell id="t5PaIuf_Ucvlq-BYLgik-117" value="29" style="strokeWidth=1;shadow=0;dashed=0;align=center;html=1;shape=mxgraph.mockup.forms.rrect;rSize=0;strokeColor=#999999;fontColor=#999999;" parent="t5PaIuf_Ucvlq-BYLgik-79" vertex="1">
          <mxGeometry x="14.375" y="136.5333333333333" width="28.75" height="21.33333333333333" as="geometry" />
        </mxCell>
        <mxCell id="t5PaIuf_Ucvlq-BYLgik-118" value="30" style="strokeWidth=1;shadow=0;dashed=0;align=center;html=1;shape=mxgraph.mockup.forms.rrect;rSize=0;strokeColor=#999999;fontColor=#999999;" parent="t5PaIuf_Ucvlq-BYLgik-79" vertex="1">
          <mxGeometry x="43.125" y="136.5333333333333" width="28.75" height="21.33333333333333" as="geometry" />
        </mxCell>
        <mxCell id="t5PaIuf_Ucvlq-BYLgik-119" value="31" style="strokeWidth=1;shadow=0;dashed=0;align=center;html=1;shape=mxgraph.mockup.forms.rrect;rSize=0;strokeColor=#999999;fontColor=#999999;" parent="t5PaIuf_Ucvlq-BYLgik-79" vertex="1">
          <mxGeometry x="71.875" y="136.5333333333333" width="28.75" height="21.33333333333333" as="geometry" />
        </mxCell>
        <mxCell id="t5PaIuf_Ucvlq-BYLgik-120" value="1" style="strokeWidth=1;shadow=0;dashed=0;align=center;html=1;shape=mxgraph.mockup.forms.rrect;rSize=0;strokeColor=#999999;fontColor=#999999;fillColor=#ddeeff;" parent="t5PaIuf_Ucvlq-BYLgik-79" vertex="1">
          <mxGeometry x="100.625" y="136.5333333333333" width="28.75" height="21.33333333333333" as="geometry" />
        </mxCell>
        <mxCell id="t5PaIuf_Ucvlq-BYLgik-121" value="2" style="strokeWidth=1;shadow=0;dashed=0;align=center;html=1;shape=mxgraph.mockup.forms.rrect;rSize=0;strokeColor=#999999;fontColor=#999999;fillColor=#ddeeff;" parent="t5PaIuf_Ucvlq-BYLgik-79" vertex="1">
          <mxGeometry x="129.375" y="136.5333333333333" width="28.75" height="21.33333333333333" as="geometry" />
        </mxCell>
        <mxCell id="t5PaIuf_Ucvlq-BYLgik-122" value="3" style="strokeWidth=1;shadow=0;dashed=0;align=center;html=1;shape=mxgraph.mockup.forms.rrect;rSize=0;strokeColor=#999999;fontColor=#999999;fillColor=#ddeeff;" parent="t5PaIuf_Ucvlq-BYLgik-79" vertex="1">
          <mxGeometry x="158.125" y="136.5333333333333" width="28.75" height="21.33333333333333" as="geometry" />
        </mxCell>
        <mxCell id="t5PaIuf_Ucvlq-BYLgik-123" value="4" style="strokeWidth=1;shadow=0;dashed=0;align=center;html=1;shape=mxgraph.mockup.forms.rrect;rSize=0;strokeColor=#999999;fontColor=#999999;fillColor=#ddeeff;" parent="t5PaIuf_Ucvlq-BYLgik-79" vertex="1">
          <mxGeometry x="186.875" y="136.5333333333333" width="28.75" height="21.33333333333333" as="geometry" />
        </mxCell>
        <mxCell id="t5PaIuf_Ucvlq-BYLgik-124" value="5" style="strokeWidth=1;shadow=0;dashed=0;align=center;html=1;shape=mxgraph.mockup.forms.rrect;rSize=0;strokeColor=#999999;fontColor=#999999;fillColor=#ddeeff;" parent="t5PaIuf_Ucvlq-BYLgik-79" vertex="1">
          <mxGeometry x="14.375" y="157.86666666666662" width="28.75" height="21.33333333333333" as="geometry" />
        </mxCell>
        <mxCell id="t5PaIuf_Ucvlq-BYLgik-125" value="6" style="strokeWidth=1;shadow=0;dashed=0;align=center;html=1;shape=mxgraph.mockup.forms.rrect;rSize=0;strokeColor=#999999;fontColor=#999999;fillColor=#ddeeff;" parent="t5PaIuf_Ucvlq-BYLgik-79" vertex="1">
          <mxGeometry x="43.125" y="157.86666666666662" width="28.75" height="21.33333333333333" as="geometry" />
        </mxCell>
        <mxCell id="t5PaIuf_Ucvlq-BYLgik-126" value="7" style="strokeWidth=1;shadow=0;dashed=0;align=center;html=1;shape=mxgraph.mockup.forms.rrect;rSize=0;strokeColor=#999999;fontColor=#999999;fillColor=#ddeeff;" parent="t5PaIuf_Ucvlq-BYLgik-79" vertex="1">
          <mxGeometry x="71.875" y="157.86666666666662" width="28.75" height="21.33333333333333" as="geometry" />
        </mxCell>
        <mxCell id="t5PaIuf_Ucvlq-BYLgik-127" value="8" style="strokeWidth=1;shadow=0;dashed=0;align=center;html=1;shape=mxgraph.mockup.forms.rrect;rSize=0;strokeColor=#999999;fontColor=#999999;fillColor=#ddeeff;" parent="t5PaIuf_Ucvlq-BYLgik-79" vertex="1">
          <mxGeometry x="100.625" y="157.86666666666662" width="28.75" height="21.33333333333333" as="geometry" />
        </mxCell>
        <mxCell id="t5PaIuf_Ucvlq-BYLgik-128" value="9" style="strokeWidth=1;shadow=0;dashed=0;align=center;html=1;shape=mxgraph.mockup.forms.rrect;rSize=0;strokeColor=#999999;fontColor=#999999;fillColor=#ddeeff;" parent="t5PaIuf_Ucvlq-BYLgik-79" vertex="1">
          <mxGeometry x="129.375" y="157.86666666666662" width="28.75" height="21.33333333333333" as="geometry" />
        </mxCell>
        <mxCell id="t5PaIuf_Ucvlq-BYLgik-129" value="10" style="strokeWidth=1;shadow=0;dashed=0;align=center;html=1;shape=mxgraph.mockup.forms.rrect;rSize=0;strokeColor=#999999;fontColor=#999999;fillColor=#ddeeff;" parent="t5PaIuf_Ucvlq-BYLgik-79" vertex="1">
          <mxGeometry x="158.125" y="157.86666666666662" width="28.75" height="21.33333333333333" as="geometry" />
        </mxCell>
        <mxCell id="t5PaIuf_Ucvlq-BYLgik-130" value="11" style="strokeWidth=1;shadow=0;dashed=0;align=center;html=1;shape=mxgraph.mockup.forms.rrect;rSize=0;strokeColor=#999999;fontColor=#999999;fillColor=#ddeeff;" parent="t5PaIuf_Ucvlq-BYLgik-79" vertex="1">
          <mxGeometry x="186.875" y="157.86666666666662" width="28.75" height="21.33333333333333" as="geometry" />
        </mxCell>
        <mxCell id="t5PaIuf_Ucvlq-BYLgik-131" value="24" style="strokeWidth=1;shadow=0;dashed=0;align=center;html=1;shape=mxgraph.mockup.forms.rrect;rSize=0;strokeColor=#ff0000;fontColor=#ffffff;strokeWidth=2;fillColor=#008cff;" parent="t5PaIuf_Ucvlq-BYLgik-79" vertex="1">
          <mxGeometry x="71.875" y="115.19999999999999" width="28.75" height="21.33333333333333" as="geometry" />
        </mxCell>
        <mxCell id="BOf6KH2qvp3F2B6-meaJ-11" value="" style="group" parent="1" vertex="1" connectable="0">
          <mxGeometry x="-340" y="375" width="300" height="170" as="geometry" />
        </mxCell>
        <mxCell id="t5PaIuf_Ucvlq-BYLgik-28" value="" style="whiteSpace=wrap;html=1;fillColor=#fff2cc;strokeColor=#d6b656;movable=1;resizable=1;rotatable=1;deletable=1;editable=1;locked=0;connectable=1;" parent="BOf6KH2qvp3F2B6-meaJ-11" vertex="1">
          <mxGeometry width="300" height="170" as="geometry" />
        </mxCell>
        <mxCell id="t5PaIuf_Ucvlq-BYLgik-30" value="" style="html=1;shadow=0;dashed=0;shape=mxgraph.bootstrap.rrect;rSize=5;strokeColor=#DFDFDF;html=1;whiteSpace=wrap;fillColor=#FFFFFF;fontColor=#000000;" parent="BOf6KH2qvp3F2B6-meaJ-11" vertex="1">
          <mxGeometry x="20" y="25" width="260" height="120" as="geometry" />
        </mxCell>
        <mxCell id="t5PaIuf_Ucvlq-BYLgik-31" value="&lt;font color=&quot;#000000&quot;&gt;Blood request 1&lt;/font&gt;" style="html=1;shadow=0;dashed=0;shape=mxgraph.bootstrap.topButton;rSize=5;strokeColor=inherit;fillColor=#ffffff;fontColor=#6C767D;perimeter=none;whiteSpace=wrap;resizeWidth=1;align=left;spacing=10;fontSize=18;" parent="t5PaIuf_Ucvlq-BYLgik-30" vertex="1">
          <mxGeometry width="260" height="30" relative="1" as="geometry" />
        </mxCell>
        <mxCell id="t5PaIuf_Ucvlq-BYLgik-32" value="&lt;font style=&quot;font-size: 18px;&quot;&gt;Blood request 2&lt;/font&gt;" style="strokeColor=inherit;fillColor=inherit;gradientColor=inherit;fontColor=inherit;html=1;shadow=0;dashed=0;perimeter=none;whiteSpace=wrap;resizeWidth=1;align=left;spacing=10;" parent="t5PaIuf_Ucvlq-BYLgik-30" vertex="1">
          <mxGeometry width="260" height="30" relative="1" as="geometry">
            <mxPoint y="30" as="offset" />
          </mxGeometry>
        </mxCell>
        <mxCell id="t5PaIuf_Ucvlq-BYLgik-33" value="." style="strokeColor=inherit;fillColor=inherit;gradientColor=inherit;fontColor=inherit;html=1;shadow=0;dashed=0;perimeter=none;whiteSpace=wrap;resizeWidth=1;align=left;spacing=10;fontSize=18;" parent="t5PaIuf_Ucvlq-BYLgik-30" vertex="1">
          <mxGeometry width="260" height="30" relative="1" as="geometry">
            <mxPoint y="60" as="offset" />
          </mxGeometry>
        </mxCell>
        <mxCell id="t5PaIuf_Ucvlq-BYLgik-34" value="&lt;font style=&quot;font-size: 18px;&quot;&gt;Blood request n&lt;/font&gt;" style="strokeColor=inherit;fillColor=inherit;gradientColor=inherit;fontColor=inherit;html=1;shadow=0;dashed=0;perimeter=none;whiteSpace=wrap;resizeWidth=1;align=left;spacing=10;" parent="t5PaIuf_Ucvlq-BYLgik-30" vertex="1">
          <mxGeometry width="260" height="30" relative="1" as="geometry">
            <mxPoint y="90" as="offset" />
          </mxGeometry>
        </mxCell>
        <mxCell id="wy3hE0zntUCl_BmKuc5c-1" value="" style="group" parent="1" vertex="1" connectable="0">
          <mxGeometry x="230" y="40" width="380" height="190" as="geometry" />
        </mxCell>
        <mxCell id="t5PaIuf_Ucvlq-BYLgik-11" value="" style="whiteSpace=wrap;html=1;fillColor=#fff2cc;strokeColor=#d6b656;" parent="wy3hE0zntUCl_BmKuc5c-1" vertex="1">
          <mxGeometry y="9.5" width="380" height="180.5" as="geometry" />
        </mxCell>
        <mxCell id="t5PaIuf_Ucvlq-BYLgik-16" value="&lt;b&gt;Available Donors&lt;/b&gt;" style="rounded=1;whiteSpace=wrap;html=1;fillColor=#e1d5e7;strokeColor=#9673a6;fontSize=20;" parent="wy3hE0zntUCl_BmKuc5c-1" vertex="1">
          <mxGeometry x="30" y="41.707317073170735" width="320" height="46.34146341463414" as="geometry" />
        </mxCell>
        <mxCell id="t5PaIuf_Ucvlq-BYLgik-17" value="&lt;b&gt;Post Blood Request&lt;/b&gt;" style="rounded=1;whiteSpace=wrap;html=1;fillColor=#e1d5e7;strokeColor=#9673a6;fontSize=20;" parent="wy3hE0zntUCl_BmKuc5c-1" vertex="1">
          <mxGeometry x="30" y="106.58536585365854" width="320" height="46.34146341463414" as="geometry" />
        </mxCell>
        <mxCell id="wy3hE0zntUCl_BmKuc5c-6" value="" style="endArrow=classic;html=1;rounded=0;entryX=0;entryY=0.5;entryDx=0;entryDy=0;exitX=1;exitY=0.45;exitDx=0;exitDy=0;exitPerimeter=0;" parent="1" source="t5PaIuf_Ucvlq-BYLgik-22" target="t5PaIuf_Ucvlq-BYLgik-24" edge="1">
          <mxGeometry width="50" height="50" relative="1" as="geometry">
            <mxPoint x="-520" y="865" as="sourcePoint" />
            <mxPoint x="-470" y="869.38" as="targetPoint" />
          </mxGeometry>
        </mxCell>
        <mxCell id="BOf6KH2qvp3F2B6-meaJ-21" style="edgeStyle=orthogonalEdgeStyle;rounded=0;orthogonalLoop=1;jettySize=auto;html=1;exitX=1;exitY=0.5;exitDx=0;exitDy=0;entryX=-0.012;entryY=0.535;entryDx=0;entryDy=0;entryPerimeter=0;" parent="1" source="t5PaIuf_Ucvlq-BYLgik-13" target="t5PaIuf_Ucvlq-BYLgik-28" edge="1">
          <mxGeometry relative="1" as="geometry">
            <mxPoint x="-459.99999999999955" y="690" as="targetPoint" />
          </mxGeometry>
        </mxCell>
        <mxCell id="wy3hE0zntUCl_BmKuc5c-8" value="" style="group" parent="1" vertex="1" connectable="0">
          <mxGeometry x="-445" y="70" width="510" height="130" as="geometry" />
        </mxCell>
        <mxCell id="t5PaIuf_Ucvlq-BYLgik-2" value="" style="whiteSpace=wrap;html=1;fillColor=#fff2cc;strokeColor=#d6b656;container=0;" parent="wy3hE0zntUCl_BmKuc5c-8" vertex="1">
          <mxGeometry width="510" height="130" as="geometry" />
        </mxCell>
        <mxCell id="t5PaIuf_Ucvlq-BYLgik-9" value="&lt;b&gt;Need Blood&lt;/b&gt;" style="rounded=1;whiteSpace=wrap;html=1;fillColor=#f8cecc;strokeColor=#b85450;fontSize=20;container=0;" parent="wy3hE0zntUCl_BmKuc5c-8" vertex="1">
          <mxGeometry x="270" y="26.670476190476165" width="210" height="76.19047619047619" as="geometry" />
        </mxCell>
        <mxCell id="wy3hE0zntUCl_BmKuc5c-2" value="&lt;b&gt;Donate Blood&lt;/b&gt;" style="rounded=1;whiteSpace=wrap;html=1;fillColor=#e1d5e7;strokeColor=#9673a6;fontSize=20;container=0;" parent="wy3hE0zntUCl_BmKuc5c-8" vertex="1">
          <mxGeometry x="30" y="26.670476190476165" width="210" height="76.19047619047619" as="geometry" />
        </mxCell>
        <mxCell id="BOf6KH2qvp3F2B6-meaJ-24" style="edgeStyle=orthogonalEdgeStyle;rounded=0;orthogonalLoop=1;jettySize=auto;html=1;exitX=1;exitY=0.5;exitDx=0;exitDy=0;entryX=-0.007;entryY=0.474;entryDx=0;entryDy=0;entryPerimeter=0;" parent="1" source="t5PaIuf_Ucvlq-BYLgik-9" target="t5PaIuf_Ucvlq-BYLgik-11" edge="1">
          <mxGeometry relative="1" as="geometry">
            <mxPoint x="280" y="135" as="targetPoint" />
            <mxPoint x="90" y="-285" as="sourcePoint" />
          </mxGeometry>
        </mxCell>
        <mxCell id="BOf6KH2qvp3F2B6-meaJ-23" style="edgeStyle=orthogonalEdgeStyle;rounded=0;orthogonalLoop=1;jettySize=auto;html=1;exitX=0.5;exitY=1;exitDx=0;exitDy=0;entryX=0.5;entryY=0;entryDx=0;entryDy=0;" parent="1" source="wy3hE0zntUCl_BmKuc5c-2" target="t5PaIuf_Ucvlq-BYLgik-10" edge="1">
          <mxGeometry relative="1" as="geometry">
            <mxPoint x="-430" y="7.620000000000019" as="targetPoint" />
            <mxPoint x="-160" y="-239.9990476190477" as="sourcePoint" />
          </mxGeometry>
        </mxCell>
        <mxCell id="gCrkEK-7WveElL1altE7-2" value="" style="endArrow=classic;html=1;rounded=0;exitX=1;exitY=0.75;exitDx=0;exitDy=0;entryX=0;entryY=0.5;entryDx=0;entryDy=0;" edge="1" parent="1" source="t5PaIuf_Ucvlq-BYLgik-1" target="t5PaIuf_Ucvlq-BYLgik-2">
          <mxGeometry width="50" height="50" relative="1" as="geometry">
            <mxPoint x="-330" y="50" as="sourcePoint" />
            <mxPoint x="-280" as="targetPoint" />
          </mxGeometry>
        </mxCell>
        <mxCell id="gCrkEK-7WveElL1altE7-3" value="" style="endArrow=classic;html=1;rounded=0;exitX=1;exitY=0.5;exitDx=0;exitDy=0;entryX=0.848;entryY=-0.018;entryDx=0;entryDy=0;entryPerimeter=0;" edge="1" parent="1" source="t5PaIuf_Ucvlq-BYLgik-16" target="t5PaIuf_Ucvlq-BYLgik-53">
          <mxGeometry width="50" height="50" relative="1" as="geometry">
            <mxPoint x="730" y="110" as="sourcePoint" />
            <mxPoint x="660" y="370" as="targetPoint" />
            <Array as="points">
              <mxPoint x="663" y="105" />
            </Array>
          </mxGeometry>
        </mxCell>
        <mxCell id="BOf6KH2qvp3F2B6-meaJ-17" style="edgeStyle=orthogonalEdgeStyle;rounded=0;orthogonalLoop=1;jettySize=auto;html=1;exitX=0.092;exitY=1.025;exitDx=0;exitDy=0;exitPerimeter=0;" parent="1" source="t5PaIuf_Ucvlq-BYLgik-17" target="t5PaIuf_Ucvlq-BYLgik-44" edge="1">
          <mxGeometry relative="1" as="geometry">
            <mxPoint x="300" y="170" as="sourcePoint" />
            <mxPoint x="320" y="720" as="targetPoint" />
            <Array as="points">
              <mxPoint x="289" y="220" />
              <mxPoint x="289" y="220" />
            </Array>
          </mxGeometry>
        </mxCell>
        <mxCell id="gCrkEK-7WveElL1altE7-7" value="" style="group" vertex="1" connectable="0" parent="1">
          <mxGeometry x="-932.5" y="90" width="305" height="100" as="geometry" />
        </mxCell>
        <mxCell id="BOf6KH2qvp3F2B6-meaJ-7" value="" style="group" parent="gCrkEK-7WveElL1altE7-7" vertex="1" connectable="0">
          <mxGeometry x="135" y="10" width="170" height="70" as="geometry" />
        </mxCell>
        <mxCell id="t5PaIuf_Ucvlq-BYLgik-5" value="&lt;span style=&quot;font-size: 18px;&quot;&gt;&lt;b&gt;Login / Sign Up&lt;/b&gt;&lt;/span&gt;" style="text;html=1;align=center;verticalAlign=middle;resizable=0;points=[];autosize=1;strokeColor=none;fillColor=none;" parent="BOf6KH2qvp3F2B6-meaJ-7" vertex="1">
          <mxGeometry x="5" y="4.375" width="160" height="30" as="geometry" />
        </mxCell>
        <mxCell id="t5PaIuf_Ucvlq-BYLgik-7" value="&lt;span style=&quot;font-size: 18px;&quot;&gt;&lt;b&gt;using JWT Token&lt;br&gt;&lt;/b&gt;&lt;/span&gt;" style="text;html=1;align=center;verticalAlign=middle;resizable=0;points=[];autosize=1;strokeColor=none;fillColor=none;" parent="BOf6KH2qvp3F2B6-meaJ-7" vertex="1">
          <mxGeometry y="35" width="170" height="40" as="geometry" />
        </mxCell>
        <mxCell id="gCrkEK-7WveElL1altE7-6" value="" style="group" vertex="1" connectable="0" parent="gCrkEK-7WveElL1altE7-7">
          <mxGeometry width="70" height="100" as="geometry" />
        </mxCell>
        <mxCell id="t5PaIuf_Ucvlq-BYLgik-1" value="" style="shape=actor;whiteSpace=wrap;html=1;fillColor=#3399FF;" parent="gCrkEK-7WveElL1altE7-6" vertex="1">
          <mxGeometry x="15" width="40" height="60" as="geometry" />
        </mxCell>
        <mxCell id="BOf6KH2qvp3F2B6-meaJ-8" value="&lt;b style=&quot;&quot;&gt;&lt;font style=&quot;font-size: 19px;&quot;&gt;User&lt;/font&gt;&lt;/b&gt;" style="text;html=1;align=center;verticalAlign=middle;resizable=0;points=[];autosize=1;strokeColor=none;fillColor=none;" parent="gCrkEK-7WveElL1altE7-6" vertex="1">
          <mxGeometry y="60" width="70" height="40" as="geometry" />
        </mxCell>
        <mxCell id="BOf6KH2qvp3F2B6-meaJ-20" style="edgeStyle=orthogonalEdgeStyle;rounded=0;orthogonalLoop=1;jettySize=auto;html=1;exitX=0.5;exitY=1;exitDx=0;exitDy=0;entryX=0.287;entryY=0.007;entryDx=0;entryDy=0;entryPerimeter=0;" parent="1" source="t5PaIuf_Ucvlq-BYLgik-12" edge="1" target="t5PaIuf_Ucvlq-BYLgik-22">
          <mxGeometry relative="1" as="geometry">
            <mxPoint x="-740" y="750" as="targetPoint" />
            <Array as="points" />
          </mxGeometry>
        </mxCell>
        <mxCell id="gCrkEK-7WveElL1altE7-10" value="" style="group" vertex="1" connectable="0" parent="1">
          <mxGeometry x="410" y="390" width="300" height="160" as="geometry" />
        </mxCell>
        <mxCell id="t5PaIuf_Ucvlq-BYLgik-53" value="" style="whiteSpace=wrap;html=1;fillColor=#fff2cc;strokeColor=#d6b656;" parent="gCrkEK-7WveElL1altE7-10" vertex="1">
          <mxGeometry width="300" height="160" as="geometry" />
        </mxCell>
        <mxCell id="Jkh0PgbCsXfkm_4j1L5Q-1" value="" style="html=1;shadow=0;dashed=0;shape=mxgraph.bootstrap.rrect;rSize=5;strokeColor=#DFDFDF;html=1;whiteSpace=wrap;fillColor=#FFFFFF;fontColor=#000000;" parent="gCrkEK-7WveElL1altE7-10" vertex="1">
          <mxGeometry x="20" y="20" width="260" height="120" as="geometry" />
        </mxCell>
        <mxCell id="Jkh0PgbCsXfkm_4j1L5Q-2" value="&lt;font color=&quot;#000000&quot;&gt;Donor 1&lt;/font&gt;" style="html=1;shadow=0;dashed=0;shape=mxgraph.bootstrap.topButton;rSize=5;strokeColor=inherit;fillColor=#ffffff;fontColor=#6C767D;perimeter=none;whiteSpace=wrap;resizeWidth=1;align=left;spacing=10;fontSize=18;" parent="Jkh0PgbCsXfkm_4j1L5Q-1" vertex="1">
          <mxGeometry width="260" height="30" relative="1" as="geometry" />
        </mxCell>
        <mxCell id="Jkh0PgbCsXfkm_4j1L5Q-3" value="&lt;font style=&quot;font-size: 18px;&quot;&gt;Donor 2&lt;/font&gt;" style="strokeColor=inherit;fillColor=inherit;gradientColor=inherit;fontColor=inherit;html=1;shadow=0;dashed=0;perimeter=none;whiteSpace=wrap;resizeWidth=1;align=left;spacing=10;" parent="Jkh0PgbCsXfkm_4j1L5Q-1" vertex="1">
          <mxGeometry width="260" height="30" relative="1" as="geometry">
            <mxPoint y="30" as="offset" />
          </mxGeometry>
        </mxCell>
        <mxCell id="Jkh0PgbCsXfkm_4j1L5Q-4" value="." style="strokeColor=inherit;fillColor=inherit;gradientColor=inherit;fontColor=inherit;html=1;shadow=0;dashed=0;perimeter=none;whiteSpace=wrap;resizeWidth=1;align=left;spacing=10;fontSize=18;" parent="Jkh0PgbCsXfkm_4j1L5Q-1" vertex="1">
          <mxGeometry width="260" height="30" relative="1" as="geometry">
            <mxPoint y="60" as="offset" />
          </mxGeometry>
        </mxCell>
        <mxCell id="Jkh0PgbCsXfkm_4j1L5Q-5" value="&lt;font style=&quot;font-size: 18px;&quot;&gt;Donor n&lt;/font&gt;" style="strokeColor=inherit;fillColor=inherit;gradientColor=inherit;fontColor=inherit;html=1;shadow=0;dashed=0;perimeter=none;whiteSpace=wrap;resizeWidth=1;align=left;spacing=10;" parent="Jkh0PgbCsXfkm_4j1L5Q-1" vertex="1">
          <mxGeometry width="260" height="30" relative="1" as="geometry">
            <mxPoint y="90" as="offset" />
          </mxGeometry>
        </mxCell>
      </root>
    </mxGraphModel>
  </diagram>
</mxfile>
